<svg aria-hidden="true" style="position: absolute; width: 0; height: 0; overflow: hidden;" version="1.1" xmlns="http://www.w3.org/2000/svg" xmlns:xlink="http://www.w3.org/1999/xlink">
<defs>
<symbol id="icon-Logo" viewBox="0 0 108 32">
<path fill="#01996d" style="fill: var(--color1, #01996d)" d="M13.533 2.347h5.16l12.32 28.32h-7.040l-2.44-6h-11l-2.36 6h-6.88l12.24-28.32zM15.933 10.587l-3.44 8.8h6.92l-3.48-8.8z"></path>
<path fill="#01996d" style="fill: var(--color1, #01996d)" d="M33.182 0.427h6v30.24h-6v-30.24z"></path>
<path fill="#01996d" style="fill: var(--color1, #01996d)" d="M43.572 11.227h6v19.44h-6v-19.44zM43.092 5.107c0-0.96 0.333-1.773 1-2.44 0.693-0.693 1.52-1.040 2.48-1.040s1.773 0.347 2.44 1.040c0.693 0.667 1.040 1.48 1.040 2.44s-0.347 1.787-1.040 2.48c-0.667 0.667-1.48 1-2.44 1s-1.787-0.333-2.48-1c-0.667-0.693-1-1.52-1-2.48z"></path>
<path fill="#01996d" style="fill: var(--color1, #01996d)" d="M51.843 11.227h6.48l4.92 13.2h0.080l4.56-13.2h6.040l-7.68 19.44h-6.36l-8.040-19.44z"></path>
<path fill="#01996d" style="fill: var(--color1, #01996d)" d="M76.19 11.227h6v19.44h-6v-19.44zM75.71 5.107c0-0.96 0.333-1.773 1-2.44 0.693-0.693 1.52-1.040 2.48-1.040s1.773 0.347 2.44 1.040c0.693 0.667 1.040 1.48 1.040 2.44s-0.347 1.787-1.040 2.48c-0.667 0.667-1.48 1-2.44 1s-1.787-0.333-2.48-1c-0.667-0.693-1-1.52-1-2.48z"></path>
<path fill="#01996d" style="fill: var(--color1, #01996d)" d="M85.78 20.947c0-1.547 0.28-2.947 0.84-4.2s1.32-2.32 2.28-3.2c0.987-0.907 2.133-1.6 3.44-2.080 1.333-0.48 2.747-0.72 4.24-0.72s2.893 0.24 4.2 0.72c1.333 0.48 2.48 1.173 3.44 2.080 0.987 0.88 1.76 1.947 2.32 3.2s0.84 2.653 0.84 4.2c0 1.547-0.28 2.947-0.84 4.2s-1.333 2.333-2.32 3.24c-0.96 0.88-2.107 1.56-3.44 2.040-1.307 0.48-2.707 0.72-4.2 0.72s-2.907-0.24-4.24-0.72c-1.307-0.48-2.453-1.16-3.44-2.040-0.96-0.907-1.72-1.987-2.28-3.24s-0.84-2.653-0.84-4.2zM91.78 20.947c0 1.467 0.413 2.653 1.24 3.56 0.853 0.907 2.040 1.36 3.56 1.36s2.693-0.453 3.52-1.36c0.853-0.907 1.28-2.093 1.28-3.56s-0.427-2.653-1.28-3.56c-0.827-0.907-2-1.36-3.52-1.36s-2.707 0.453-3.56 1.36c-0.827 0.907-1.24 2.093-1.24 3.56z"></path>
</symbol>
</defs>
</svg>
